<?xml version="1.0" standalone="no"?>
<!DOCTYPE svg PUBLIC "-//W3C//DTD SVG 20010904//EN"
 "http://www.w3.org/TR/2001/REC-SVG-20010904/DTD/svg10.dtd">
<svg version="1.0" xmlns="http://www.w3.org/2000/svg"
 width="512.000000pt" height="512.000000pt" viewBox="0 0 512.000000 512.000000"
 preserveAspectRatio="xMidYMid meet">
<metadata>
Created by potrace 1.14, written by Peter Selinger 2001-2017
</metadata>
<g transform="translate(0.000000,512.000000) scale(0.100000,-0.100000)"
fill="#000000" stroke="none">
<path d="M2036 4144 c-9 -8 -16 -21 -17 -27 -1 -22 -9 -61 -35 -167 -14 -58
-28 -116 -30 -130 -18 -94 -92 -392 -96 -384 -3 5 -11 27 -17 49 -7 22 -16 49
-21 60 -5 11 -15 40 -23 65 -21 64 -173 501 -182 523 -5 12 -16 17 -34 15 -25
-3 -27 -7 -47 -128 -11 -69 -27 -163 -34 -210 -7 -47 -15 -96 -17 -110 -2 -14
-27 -164 -54 -335 -27 -170 -52 -321 -54 -335 -2 -14 -11 -68 -19 -120 -14
-91 -24 -155 -80 -510 -14 -85 -41 -254 -60 -375 -19 -121 -37 -233 -40 -250
-6 -35 -62 -384 -70 -435 -3 -19 -15 -93 -27 -165 -12 -71 -22 -156 -23 -187
-1 -82 12 -92 117 -94 132 -2 139 6 157 171 6 55 13 111 15 125 2 14 9 70 15
125 10 97 16 141 25 215 3 19 12 94 20 165 8 72 17 144 19 160 3 17 7 62 11
100 3 39 8 77 10 85 2 8 6 44 10 80 3 36 8 76 10 90 3 14 9 63 14 110 15 131
41 351 46 390 5 37 45 382 66 568 7 61 16 112 19 112 4 0 7 -6 7 -12 1 -7 35
-150 77 -318 78 -309 79 -312 61 -420 -2 -14 -36 -263 -75 -555 -38 -291 -72
-546 -75 -565 -3 -19 -8 -55 -11 -80 -3 -25 -7 -56 -9 -70 -8 -50 -34 -246
-41 -305 -3 -33 -8 -68 -10 -79 -2 -10 3 -33 10 -51 16 -38 37 -45 139 -42 56
2 72 6 93 26 13 13 24 28 24 35 0 6 7 68 15 136 8 69 18 148 21 175 3 28 7 61
9 75 2 14 6 52 10 85 3 33 8 71 10 85 2 14 9 72 15 130 6 58 13 116 15 130 2
14 7 52 10 85 4 33 8 71 10 85 2 14 7 50 10 80 4 30 8 56 10 58 1 2 17 -57 35
-130 136 -566 264 -1066 277 -1080 12 -13 32 -18 74 -18 48 0 60 4 73 21 8 12
47 156 87 320 40 165 76 299 79 299 3 0 16 -44 28 -97 71 -297 124 -500 137
-520 13 -20 24 -23 74 -23 43 0 62 5 74 18 13 14 82 270 112 414 2 9 10 43 19
75 8 32 49 200 91 373 42 173 79 324 82 335 6 17 41 -249 123 -934 28 -238 29
-239 163 -237 139 3 138 0 91 341 -8 61 -17 121 -19 135 -2 14 -7 52 -11 85
-3 33 -8 69 -10 79 -4 22 -43 314 -49 361 -1 17 -8 67 -14 112 -7 46 -14 95
-16 110 -9 72 -27 201 -30 223 -2 14 -11 81 -20 150 -9 69 -18 135 -20 146
-20 120 -20 122 60 449 43 174 79 315 80 313 2 -2 6 -29 9 -62 6 -51 16 -129
31 -241 2 -16 6 -57 10 -90 3 -33 8 -73 10 -90 2 -16 7 -50 10 -75 3 -25 19
-155 35 -290 16 -135 32 -267 36 -295 3 -27 7 -61 9 -75 2 -14 6 -50 10 -80 3
-30 8 -71 10 -90 16 -130 36 -291 40 -325 3 -22 12 -101 21 -175 8 -74 17
-148 19 -165 7 -47 33 -264 40 -325 8 -76 22 -106 53 -119 35 -13 177 -8 196
8 33 28 32 48 -44 516 -11 66 -22 138 -25 160 -3 22 -7 49 -10 60 -4 18 -42
257 -50 315 -2 14 -6 39 -9 55 -7 41 -56 341 -62 385 -3 19 -7 46 -9 60 -2 14
-17 111 -34 215 -17 105 -49 305 -71 445 -23 140 -43 266 -45 280 -2 14 -11
70 -20 125 -9 55 -18 111 -20 125 -2 14 -20 129 -40 255 -20 127 -40 234 -45
238 -4 5 -18 7 -30 5 -25 -3 -11 32 -190 -496 -41 -122 -77 -222 -80 -222 -3
0 -34 127 -69 283 -89 388 -100 430 -114 439 -33 21 -45 0 -101 -193 -30 -101
-71 -240 -91 -309 -20 -69 -56 -190 -79 -270 -204 -698 -241 -819 -248 -803
-8 21 -23 72 -203 678 -242 813 -265 889 -278 897 -17 11 -24 10 -41 -8z m71
-874 c7 -14 112 -328 234 -699 121 -370 224 -670 228 -665 5 5 25 61 45 124
20 63 118 360 217 660 99 300 182 554 185 565 4 21 30 45 49 45 24 0 45 -27
49 -65 3 -22 17 -134 31 -250 14 -115 28 -226 31 -245 16 -135 16 -145 -3
-161 -41 -36 -78 -10 -86 61 -33 288 -42 360 -47 360 -3 0 -22 -53 -43 -118
-182 -561 -382 -1161 -393 -1179 -16 -25 -55 -31 -72 -10 -10 11 -161 461
-359 1069 -42 131 -79 235 -82 232 -3 -2 -6 -15 -8 -27 -1 -12 -12 -95 -23
-185 -11 -89 -20 -169 -20 -177 0 -8 -11 -22 -25 -31 -23 -15 -27 -15 -51 1
-29 19 -29 12 1 240 8 61 17 133 20 160 28 248 37 301 53 313 24 19 54 11 69
-18z"/>
<path d="M3214 694 c-32 -33 -77 -83 -99 -111 -33 -42 -51 -55 -105 -74 -36
-12 -72 -25 -80 -28 -12 -4 -12 0 3 22 19 30 17 31 -30 18 -20 -6 -35 -6 -38
0 -10 16 -81 10 -174 -15 -50 -14 -91 -22 -91 -19 0 4 8 15 17 26 17 18 17 19
-12 14 -48 -8 -128 -29 -147 -39 -19 -9 -26 6 -8 17 6 3 10 10 10 16 0 11 -48
4 -127 -20 l-62 -19 16 24 c16 26 6 32 -25 15 -10 -5 -37 -12 -61 -16 -24 -3
-54 -10 -67 -15 -26 -10 -31 -1 -12 18 24 24 -3 24 -86 0 -84 -24 -98 -24 -74
0 29 29 -22 23 -151 -17 -33 -10 -33 -10 -16 9 10 11 16 22 13 25 -3 3 -42 -5
-87 -18 -45 -13 -84 -20 -87 -16 -3 5 -1 9 4 9 6 0 12 7 16 15 4 12 -1 14 -26
10 -18 -4 -34 -8 -37 -10 -2 -3 -10 0 -17 6 -17 14 -111 6 -179 -15 -65 -20
-68 -20 -60 5 7 20 5 21 -36 14 -24 -4 -56 -13 -71 -20 -26 -13 -27 -12 -17 6
12 22 5 22 -108 -11 -66 -19 -73 -18 -48 7 21 21 15 24 -24 13 -20 -5 -40 -6
-50 0 -43 22 -138 -8 -162 -51 -12 -23 -2 -24 55 -8 21 6 46 12 55 14 9 2 30
8 48 14 l32 9 -16 -24 c-16 -25 -16 -25 13 -20 16 3 56 15 88 26 33 11 61 20
63 20 2 0 -4 -11 -13 -25 -16 -24 -16 -25 2 -19 11 4 24 10 29 14 8 6 103 40
111 40 1 0 4 -9 7 -19 4 -16 12 -18 45 -15 22 2 52 8 66 14 24 9 25 8 14 -10
-7 -10 -10 -21 -7 -24 4 -5 105 18 169 39 24 7 24 7 8 -12 -23 -25 -23 -37 0
-28 9 4 24 8 33 10 8 2 40 10 69 19 68 20 65 21 46 -9 -9 -14 -14 -25 -11 -25
2 0 44 11 91 25 48 14 89 23 92 20 3 -3 -3 -15 -14 -26 -19 -21 -19 -22 1 -16
62 18 171 47 179 47 5 0 1 -9 -9 -20 -10 -11 -16 -22 -14 -24 2 -2 45 7 94 19
50 12 92 21 94 19 2 -2 -4 -11 -13 -20 -9 -9 -15 -18 -13 -21 3 -2 43 7 89 21
107 33 118 33 87 0 -22 -24 -22 -26 -4 -21 69 20 171 47 179 47 5 0 1 -9 -9
-20 -10 -11 -16 -22 -14 -25 3 -2 44 6 92 19 79 21 86 22 72 6 -22 -24 -7 -31
38 -19 74 18 102 26 127 34 24 7 24 7 8 -12 -36 -39 -20 -39 104 2 l67 22 -20
-29 c-11 -15 -19 -28 -17 -28 2 0 42 11 91 24 48 13 87 22 87 18 0 -3 -7 -14
-17 -24 -21 -23 -14 -23 80 6 42 13 77 20 77 16 0 -5 -5 -12 -10 -15 -18 -11
1 -27 24 -20 11 3 28 7 37 9 8 3 39 11 67 20 51 15 63 11 40 -12 -19 -19 -6
-20 52 -5 30 8 63 16 73 18 10 2 28 7 40 11 21 6 21 6 3 -8 -34 -26 -10 -41
53 -35 31 4 63 8 71 10 8 2 33 7 55 12 22 4 55 14 74 22 l33 14 -21 -27 c-12
-15 -20 -29 -18 -31 2 -2 33 6 68 16 76 24 119 32 119 24 0 -4 -7 -15 -17 -25
-9 -10 -11 -18 -6 -18 10 0 81 20 147 40 38 12 44 6 21 -20 -10 -11 -15 -20
-11 -20 24 0 134 36 146 48 13 13 12 13 -7 3 -13 -7 -23 -9 -23 -6 0 3 -9 1
-21 -5 -26 -14 -36 -6 -19 15 7 9 11 18 8 20 -2 3 -43 -6 -91 -19 -48 -12 -87
-19 -87 -15 0 4 5 11 10 14 6 3 10 11 10 16 0 12 -51 4 -132 -21 l-58 -18 21
29 c11 16 33 36 47 43 35 19 100 83 116 115 48 94 18 94 -66 -1 -35 -39 -76
-86 -93 -105 -28 -31 -98 -63 -166 -77 -108 -22 -120 -23 -126 -13 -8 14 25
37 56 38 33 2 33 2 54 -6 12 -5 17 -2 17 10 0 29 -114 16 -261 -30 -23 -8 -23
-7 -6 19 l18 27 -28 -7 c-15 -3 -37 -5 -48 -4 -67 7 -148 -1 -202 -18 -67 -21
-73 -20 -46 10 17 19 16 19 -12 13 -39 -9 -136 -36 -155 -43 -23 -9 24 46 67
77 79 58 139 141 130 179 -3 13 -18 2 -63 -44z m32 -12 c-14 -28 -80 -102 -91
-102 -3 0 18 29 47 65 28 36 53 65 55 65 2 0 -3 -12 -11 -28z m885 -9 c-10
-20 -79 -93 -87 -93 -3 0 14 25 38 55 41 53 69 74 49 38z m-2574 -170 c-3 -2
-17 -6 -33 -9 -16 -3 -37 -7 -46 -10 -10 -3 -18 -1 -18 5 0 13 59 29 83 23 10
-2 16 -6 14 -9z m1288 5 c3 -3 -14 -11 -39 -17 -57 -14 -61 -14 -46 3 16 20
71 29 85 14z m625 2 c3 -1 -17 -8 -44 -16 -56 -18 -74 -11 -26 10 29 12 45 13
70 6z m-2510 -9 c-8 -5 -33 -12 -55 -16 -37 -6 -39 -5 -21 9 11 9 36 16 55 16
26 -1 32 -3 21 -9z"/>
<path d="M3306 619 c-54 -13 -57 -19 -9 -19 27 0 43 5 47 15 3 8 4 15 3 14 -1
-1 -20 -5 -41 -10z"/>
<path d="M4330 608 c0 -11 52 -10 70 2 11 8 4 10 -27 8 -24 -1 -43 -6 -43 -10z"/>
</g>
</svg>
