<svg xmlns="http://www.w3.org/2000/svg" viewBox="0 0 512 512" id="arammaliachi-logo"><g data-name="Layer 5"><path d="M111.48,463.45,99,467.05c-1.11.32-1.62,0-1-.76l3.5-4.24-17.57,4.86c-1.66.46-2.3.18-2.3-.58,0-2.74,5.14-7.2,12.49-7.2,3.67,0,5,1.15,5.5,1.8l6.23-1.73c1-.28,1.51.18,1,.8l-3.57,4.28,9.94-2.74A2.14,2.14,0,0,1,111.48,463.45Zm-17.35-2.81c-3.93,0-6.88,1.91-7.35,3.21-.18.46,0,.57,1.59.18,6.8-1.73,9.32-2.63,9.32-2.63C97.22,461.08,96.54,460.64,94.13,460.64Z"/><path d="M138.73,463.42l-3.24.93c-6.37,1.84-7.27-.93-5.9-2.84-3.24.36-8.43,1.91-15.27,5.47-1,.54-1.65.14-1-.65l3.52-4.28-9.36,2.52a2.18,2.18,0,0,1,1.77-1.95l11.91-3.38c1.15-.32,1.48.18,1,.79l-2.73,3.21a36.61,36.61,0,0,1,14.47-4s.9,1.18.29,1.58c-2.63,1.76-1.55,2.88,2.37,1.76l3.93-1.11A2.14,2.14,0,0,1,138.73,463.42Z"/><path d="M170.8,463.45l-12.45,3.6c-1.12.32-1.62,0-1-.76l3.49-4.24-17.63,4.86c-1.62.43-2.24.18-2.24-.58s.72-2.84,3.64-4.57a58.35,58.35,0,0,1-5.65,1.73l-4.11,1.08a2.18,2.18,0,0,1,1.77-1.95l2.19-.64c9-2.52,11.16-2.85,14.65-2.85,3.67,0,5,1.15,5.51,1.8l6.23-1.73c1-.28,1.51.18,1,.8l-3.57,4.28,9.94-2.74A2.14,2.14,0,0,1,170.8,463.45Zm-17.35-2.81c-3.92,0-6.87,1.91-7.34,3.21-.18.46,0,.57,1.58.18,6.81-1.73,9.33-2.63,9.33-2.63C156.55,461.08,155.87,460.64,153.45,460.64Z"/><path d="M211.77,459.38c2.37-.46,2.81,0,1.69,1.33l-3,3.57,9.93-2.74a2.17,2.17,0,0,1-1.76,1.95l-12.49,3.6c-1.12.32-1.48-.18-1-.76l2.84-3.49c.58-.72.4-.9-.39-.72a180.86,180.86,0,0,0-17.75,5c-1.12.36-1.48-.18-1-.76l2.84-3.49c.58-.72.4-.9-.39-.72-4,.86-9,2.16-17.79,5-1.33.43-1.62,0-1-.76l3.53-4.28-9.36,2.52a2.17,2.17,0,0,1,1.76-1.95l11.92-3.38c1.12-.32,1.47.18,1,.79l-3.53,4.21a144.68,144.68,0,0,1,17.57-4.86c2.38-.46,2.81,0,1.69,1.33l-2.95,3.57A143.31,143.31,0,0,1,211.77,459.38Z"/><path d="M259.94,459.38c2.37-.46,2.81,0,1.69,1.33l-2.95,3.57,9.93-2.74a2.17,2.17,0,0,1-1.76,1.95l-12.49,3.6c-1.12.32-1.48-.18-1-.76l2.84-3.49c.58-.72.4-.9-.4-.72a181.68,181.68,0,0,0-17.74,5c-1.12.36-1.48-.18-1-.76l2.84-3.49c.58-.72.4-.9-.4-.72-4,.86-9,2.16-17.78,5-1.33.43-1.62,0-1-.76l3.53-4.28L215,464.57a2.17,2.17,0,0,1,1.76-1.95l11.92-3.38c1.11-.32,1.47.18,1,.79l-3.53,4.21a144.18,144.18,0,0,1,17.57-4.86c2.37-.46,2.8,0,1.69,1.33l-3,3.57A142.82,142.82,0,0,1,259.94,459.38Z"/><path d="M299.11,463.45l-12.46,3.6c-1.11.32-1.62,0-1-.76l3.5-4.24-17.64,4.86c-1.62.43-2.23.18-2.23-.58s.72-2.84,3.63-4.57a57.14,57.14,0,0,1-5.65,1.73l-4.1,1.08a2.17,2.17,0,0,1,1.76-1.95l2.2-.64c9-2.52,11.15-2.85,14.65-2.85,3.67,0,5,1.15,5.5,1.8l6.23-1.73c1-.28,1.51.18,1,.8l-3.56,4.28,9.93-2.74A2.14,2.14,0,0,1,299.11,463.45Zm-17.35-2.81c-3.93,0-6.88,1.91-7.35,3.21-.18.46,0,.57,1.59.18,6.8-1.73,9.32-2.63,9.32-2.63C284.85,461.08,284.17,460.64,281.76,460.64Z"/><path d="M305.26,461a55.88,55.88,0,0,1-10.15,3.53,2.07,2.07,0,0,1,1.77-1.95,57.42,57.42,0,0,0,10.26-3.85c7.59-9.14,11.62-13.89,15.33-17.82,2.27-2.37,3.56-3.31,4.39-3.31s.9,1,.4,2.85c-2.2,7.92-9.43,14.11-16.24,18l-4.75,5.76,9.94-2.7a2.13,2.13,0,0,1-1.73,1.91L302,467.05c-1,.29-1.66,0-1-.72Zm20.05-19.73s-1.29,1.48-3.56,4.22c-2.73,3.34-8.35,10-8.35,10,6-3.93,10.22-9,12.17-14.08C325.71,441.1,325.6,441,325.31,441.31Z"/><path d="M329.85,463.45l-12.49,3.6c-1.15.36-1.62.07-1-.72l3.53-4.28-9.36,2.52a2.17,2.17,0,0,1,1.76-1.95l11.92-3.38c1.11-.32,1.47.18,1,.79l-3.53,4.28,9.94-2.77A2.14,2.14,0,0,1,329.85,463.45ZM332.59,452l-5.87-.43c-2.09-.11,0-1.08,0-1.08l7.31-.94c.79-.07.79.61,0,1.3Z"/><path d="M361.82,463.45l-12.46,3.6c-1.11.32-1.62,0-1-.76l3.5-4.24-17.64,4.86c-1.62.43-2.23.18-2.23-.58s.72-2.84,3.63-4.57a57.14,57.14,0,0,1-5.65,1.73l-4.1,1.08a2.17,2.17,0,0,1,1.76-1.95l2.2-.64c9-2.52,11.16-2.85,14.65-2.85,3.67,0,5,1.15,5.5,1.8l6.23-1.73c1-.28,1.51.18,1,.8l-3.56,4.28,9.93-2.74A2.14,2.14,0,0,1,361.82,463.45Zm-17.35-2.81c-3.93,0-6.88,1.91-7.35,3.21-.18.46,0,.57,1.59.18,6.8-1.73,9.32-2.63,9.32-2.63C347.56,461.08,346.88,460.64,344.47,460.64Z"/><path d="M388,463.45c-7.46,2.27-14.4,3.89-20.49,3.89-6.87,0-1.94-4.79.29-5.58-3.78,1.12-6.15,1.73-10,2.81a2.3,2.3,0,0,1,1.76-1.95c5-1.47,12.2-3.74,17.71-3.74,4.79,0,5.69,1,5.69,1.94s-1.48,1.69-2.38,1.69v-.14c0-1.15-.79-1.8-3.56-1.8-6.19,0-10.8,5-6.45,5,4.9,0,11.27-1.79,19.19-4.1A2.2,2.2,0,0,1,388,463.45Z"/><path d="M394.18,461a55.36,55.36,0,0,1-10.11,3.53,2.07,2.07,0,0,1,1.76-1.95,56.64,56.64,0,0,0,10.22-3.85c7.6-9.14,11.6-13.89,15.34-17.82,2.23-2.37,3.56-3.31,4.35-3.31s.94,1,.44,2.85c-2.24,7.92-9.43,14.11-16.24,18l-4.71,5.76a141.38,141.38,0,0,1,17.53-4.86c2.37-.46,2.8,0,1.69,1.33l-2.95,3.57,9.93-2.74a2.17,2.17,0,0,1-1.76,1.95l-12.49,3.6c-1.12.32-1.48-.18-1-.76l2.84-3.49c.57-.72.4-.9-.4-.72-4,.86-9,2.16-17.78,5-1.15.32-1.62,0-1-.76Zm20.05-19.73s-1.33,1.48-3.56,4.22l-8.35,10c6-3.93,10.22-9,12.13-14.08C414.59,441.1,414.52,441,414.23,441.31Z"/><path d="M435.29,463.45l-12.49,3.6c-1.15.36-1.62.07-1-.72l3.53-4.28L416,464.57a2.17,2.17,0,0,1,1.76-1.95l11.92-3.38c1.11-.32,1.47.18,1,.79l-3.53,4.28,9.94-2.77A2.14,2.14,0,0,1,435.29,463.45ZM438,452l-5.87-.43c-2.09-.11,0-1.08,0-1.08l7.31-.94c.79-.07.79.61,0,1.3Z"/><path d="M406,410.67,356.45,99.93a3,3,0,0,0-5.72-.48L325.8,172.7,308.92,99.18A3,3,0,0,0,303.2,99L256.32,258.65,208.81,98.9a3,3,0,0,0-5.71.18l-16.79,72.8-25-72.55a3,3,0,0,0-5.71.5L106,410.67c-1,6.64,1,11.39,6,11.39H125.3c2.65,0,5.64-3.32,6-6.64l28.9-244.35,1.31-.08,16.15,65.49L154.22,410.67c-1,6.64,1,11.39,6,11.39h13.28c2.66,0,5.65-3.32,6-6.64l13.71-115.91,30.1,122.07c.67,2.85,3.65,5.22,5.65,5.22h6c2,0,5-2.37,5.64-5.22l15.38-63,15.54,63c.66,2.85,3.65,5.22,5.64,5.22h6c2,0,5-2.37,5.65-5.22l29.78-122.1,14,115.94c.66,3.32,3.32,6.64,6,6.64H351.8c5,0,7-4.75,6-11.39L334.2,235.19,349.86,171l1.31.08,29.56,244.35c.66,3.32,3.32,6.64,6,6.64H400C405,422.06,407,417.31,406,410.67Zm-91.35-154.4a5.51,5.51,0,0,1-6-4.82L304,212.9,261.78,341a5.49,5.49,0,0,1-10.44,0L209.14,212.9l-4.66,38.55a5.5,5.5,0,0,1-10.95-1l.08-1.12a5,5,0,0,1,.18-1.1l7.49-61.89a5.5,5.5,0,0,1,11,.66v.17l44.32,134.59,44.32-134.59V187a5.5,5.5,0,0,1,11-.66l7.49,61.9a4.88,4.88,0,0,1,.18,1.08l.08,1.13A5.5,5.5,0,0,1,314.62,256.27Z" stroke="#000" stroke-miterlimit="10"/></g></svg>